<svg width="1211" height="1210" xmlns="http://www.w3.org/2000/svg" xmlns:xlink="http://www.w3.org/1999/xlink" xml:space="preserve" overflow="hidden"><g transform="translate(-1594 -463)"><path d="M2291.55 788.546C2332.81 788.546 2357.63 798.333 2366.02 817.907 2370.21 829.791 2366.72 846.568 2355.53 868.24 2344.34 889.911 2326.16 912.805 2300.99 936.923 2275.82 961.041 2244.53 984.809 2207.12 1008.23 2169.71 1031.65 2126.89 1051.4 2078.64 1067.47 2091.93 1021.34 2103.81 977.993 2114.3 937.447 2124.79 896.901 2135.63 858.802 2146.81 823.15 2174.08 809.867 2199.95 800.779 2224.43 795.886 2248.9 790.993 2271.27 788.546 2291.55 788.546ZM2282.37 579.087C2260.7 579.437 2238.41 581.622 2215.51 585.641 2169.71 593.681 2123.22 607.137 2076.02 626.013 2028.82 644.887 1983.55 664.111 1940.2 683.686 1931.11 688.579 1922.37 700.987 1913.98 720.911 1905.59 740.834 1897.9 766.001 1890.9 796.411 1883.91 826.82 1877.27 861.074 1870.98 899.173 1864.68 937.273 1858.91 976.595 1853.67 1017.14 1848.43 1057.69 1843.53 1098.23 1838.99 1138.78 1834.44 1179.32 1830.42 1217.25 1826.93 1252.55 1823.43 1287.86 1820.46 1319.49 1818.01 1347.45 1815.56 1375.41 1813.64 1396.73 1812.24 1411.42 1810.84 1429.59 1812.59 1444.1 1817.49 1454.93 1822.38 1465.77 1831.47 1475.03 1844.76 1482.72 1858.04 1489.71 1872.03 1494.6 1886.71 1497.4 1901.39 1500.2 1918.17 1504.04 1937.05 1508.94 1953.13 1512.43 1964.15 1512.43 1970.09 1508.94 1976.03 1505.44 1980.75 1498.1 1984.25 1486.91 1991.94 1449.17 1999.81 1410.72 2007.85 1371.57 2015.89 1332.42 2024.8 1291.53 2034.59 1248.88 2052.77 1271.25 2073.05 1293.45 2095.42 1315.47 2117.8 1337.49 2140.17 1358.64 2162.55 1378.91 2184.92 1399.18 2206.6 1417.71 2227.57 1434.48 2248.55 1451.26 2267.08 1465.24 2283.16 1476.43 2307.63 1491.11 2329.13 1499.32 2347.66 1501.07 2366.19 1502.82 2383.15 1501.6 2398.53 1497.4 2411.12 1495.3 2421.78 1493.38 2430.52 1491.63 2439.26 1489.89 2449.92 1484.12 2462.51 1474.33 2473 1466.64 2478.94 1459.3 2480.34 1452.31 2481.74 1445.32 2475.44 1435.88 2461.46 1424 2443.98 1410.02 2425.28 1393.59 2405.35 1374.71 2385.42 1355.84 2365.32 1336.27 2345.04 1315.99 2324.76 1295.72 2305.01 1275.45 2285.78 1255.17 2266.55 1234.9 2248.9 1215.68 2232.82 1197.5 2311.13 1162.55 2378.43 1124.8 2434.72 1084.25 2491 1043.71 2531.38 999.315 2555.85 951.079 2571.94 921.019 2575.43 882.571 2566.34 835.733 2555.15 791.692 2539.6 754.466 2519.67 724.057 2499.74 693.647 2477.54 665.16 2453.07 638.596 2422.3 608.536 2386.47 590.185 2345.57 583.544 2325.11 580.224 2304.05 578.738 2282.37 579.087ZM2199.5 463C2533.91 463 2805 733.868 2805 1068 2805 1402.13 2533.91 1673 2199.5 1673 1865.09 1673 1594 1402.13 1594 1068 1594 733.868 1865.09 463 2199.5 463Z" fill-rule="evenodd"/></g></svg>